<svg xmlns="http://www.w3.org/2000/svg" aria-label="Bản đồ Việt Nam" role="img" viewBox="0 0 615 697"><title>Việt Nam</title><defs><filter id="hao" width="150%" height="150%" x="-25%" y="-25%"><feGaussianBlur result="m" stdDeviation="3.2"/><feMerge><feMergeNode in="m"/><feMergeNode in="SourceGraphic"/></feMerge></filter><linearGradient id="nen-dat" x1="0" x2=".7" y1="0" y2="1"><stop offset="0" stop-color="#DC756A" stop-opacity=".3"/><stop offset="1" stop-color="#AC4D33" stop-opacity=".16"/></linearGradient></defs><g stroke="#C08A7C" stroke-opacity=".28" stroke-width=".7"><line x1="24.3" x2="24.3" y1="0" y2="697"/><line x1="105.2" x2="105.2" y1="0" y2="697"/><line x1="186.2" x2="186.2" y1="0" y2="697"/><line x1="267.1" x2="267.1" y1="0" y2="697"/><line x1="348.1" x2="348.1" y1="0" y2="697"/><line x1="429" x2="429" y1="0" y2="697"/><line x1="510" x2="510" y1="0" y2="697"/><line x1="590.9" x2="590.9" y1="0" y2="697"/><line x1="0" x2="615" y1="697.2" y2="697.2"/><line x1="0" x2="615" y1="613.2" y2="613.2"/><line x1="0" x2="615" y1="529.2" y2="529.2"/><line x1="0" x2="615" y1="445.2" y2="445.2"/><line x1="0" x2="615" y1="361.2" y2="361.2"/><line x1="0" x2="615" y1="277.2" y2="277.2"/><line x1="0" x2="615" y1="193.2" y2="193.2"/><line x1="0" x2="615" y1="109.2" y2="109.2"/><line x1="0" x2="615" y1="25.2" y2="25.2"/></g><path fill="url(#nen-dat)" stroke="#C05340" stroke-linejoin="round" stroke-width="2.2" d="M 31.2 92.4 L 56.7 83.2 L 78.9 76.4 L 103.2 86.1 L 127.5 74.8 L 158.7 50.8 L 182.1 69.7 L 208.4 71.4 L 228.7 73.5 L 248.9 77.7 L 269.1 128.1 L 240.8 149.1 L 225.8 153.3 L 216.5 163.0 L 208.4 181.4 L 190.2 196.6 L 180.5 220.5 L 176.1 236.0 L 184.1 247.0 L 205.6 275.1 L 210.5 296.1 L 230.7 322.6 L 257.0 338.1 L 277.2 357.8 L 297.5 385.6 L 309.6 404.0 L 318.9 427.6 L 316.5 454.4 L 318.9 483.0 L 325.8 503.2 L 318.9 531.3 L 303.5 557.8 L 279.3 574.6 L 257.0 588.0 L 228.7 595.6 L 216.5 598.5 L 208.4 615.3 L 194.3 630.8 L 174.8 646.8 L 153.8 665.7 L 138.8 673.3 L 134.4 657.3 L 139.6 636.3 L 145.7 615.3 L 139.6 602.7 L 124.7 595.6 L 147.7 576.2 L 176.1 569.1 L 192.2 542.6 L 203.2 531.3 L 224.6 527.1 L 244.9 514.5 L 251.7 485.1 L 243.6 436.8 L 248.9 415.0 L 251.7 401.1 L 234.7 380.1 L 220.6 363.3 L 203.2 335.2 L 188.2 312.9 L 181.3 296.1 L 162.7 270.9 L 151.8 258.3 L 130.3 242.8 L 111.3 220.5 L 103.2 206.6 L 107.3 181.4 L 85.0 164.6 L 70.8 157.5 L 61.5 137.8 L 46.5 118.4 L 31.2 92.4 Z" filter="url(#hao)"/><g fill="none" stroke="#B0632E" stroke-linecap="round" stroke-opacity=".72" stroke-width="1.7"><path d="M 101.2 88.2 L 129.5 115.5 L 157.8 137.8 L 180.1 149.1 L 200.3 163.0 L 209.6 179.8"/><path d="M 117.4 180.6 L 141.7 191.1 L 163.9 199.5 L 182.9 205.0"/><path d="M 145.7 574.6 L 162.7 590.1 L 182.9 599.8 L 199.1 604.8 L 211.3 612.4 L 217.7 620.8"/><path d="M 149.7 583.0 L 162.7 599.8 L 178.1 612.4 L 193.5 625.8 L 205.6 633.4"/><path d="M 236.8 548.1 L 224.6 569.1 L 217.7 581.7 L 223.4 593.0"/></g><ellipse cx="104" cy="604" fill="#AC4D33" fill-opacity=".42" rx="6.9" ry="7.1"/><text x="94" y="607" fill="#8E4231" fill-opacity=".8" font-family="Calibri,'Segoe UI',sans-serif" font-size="9" text-anchor="end">Phú Quốc</text><ellipse cx="210.5" cy="668.6" fill="#AC4D33" fill-opacity=".42" rx="3.2" ry="3.4"/><text x="220.5" y="671.6" fill="#8E4231" fill-opacity=".8" font-family="Calibri,'Segoe UI',sans-serif" font-size="9" text-anchor="start">Côn Đảo</text><circle cx="412.8" cy="326.3" r="2.6" fill="#AC4D33"/><circle cx="442.4" cy="338.9" r="2.6" fill="#AC4D33"/><circle cx="396.6" cy="342.3" r="2.6" fill="#AC4D33"/><circle cx="459.4" cy="352.8" r="2.6" fill="#AC4D33"/><circle cx="422.9" cy="357" r="2.6" fill="#AC4D33"/><text x="388.5" y="388.5" fill="#8E4231" font-family="Calibri,'Segoe UI',sans-serif" font-size="11" font-weight="700" letter-spacing="1.4" text-anchor="start">HOÀNG SA</text><text x="388.5" y="400.5" fill="#8E4231" fill-opacity=".78" font-family="Calibri,'Segoe UI',sans-serif" font-size="8.6" text-anchor="start">(TP. Đà Nẵng)</text><circle cx="524.5" cy="597.7" r="2.6" fill="#AC4D33"/><circle cx="503.9" cy="626.6" r="2.6" fill="#AC4D33"/><circle cx="544.4" cy="646.8" r="2.6" fill="#AC4D33"/><circle cx="572.7" cy="619.5" r="2.6" fill="#AC4D33"/><circle cx="465.4" cy="661.5" r="2.6" fill="#AC4D33"/><circle cx="514" cy="669.9" r="2.6" fill="#AC4D33"/><circle cx="558.5" cy="583" r="2.6" fill="#AC4D33"/><circle cx="481.6" cy="617.4" r="2.6" fill="#AC4D33"/><text x="451.3" y="534.7" fill="#8E4231" font-family="Calibri,'Segoe UI',sans-serif" font-size="11" font-weight="700" letter-spacing="1.4" text-anchor="end">TRƯỜNG SA</text><text x="451.3" y="546.7" fill="#8E4231" fill-opacity=".78" font-family="Calibri,'Segoe UI',sans-serif" font-size="8.6" text-anchor="end">(tỉnh Khánh Hòa)</text><circle cx="180.1" cy="149.9" r="3" fill="#AC4D33"/><circle cx="180.1" cy="149.9" r="6.2" fill="none" stroke="#AC4D33" stroke-opacity=".45" stroke-width="1"/><text x="170.1" y="153.5" fill="#8E4231" font-family="Calibri,'Segoe UI',sans-serif" font-size="10.5" text-anchor="end">Hà Nội</text><circle cx="213.7" cy="157.1" r="3" fill="#AC4D33"/><circle cx="213.7" cy="157.1" r="6.2" fill="none" stroke="#AC4D33" stroke-opacity=".45" stroke-width="1"/><text x="223.7" y="160.7" fill="#8E4231" font-family="Calibri,'Segoe UI',sans-serif" font-size="10.5" text-anchor="start">Hải Phòng</text><circle cx="173.2" cy="248.6" r="3" fill="#AC4D33"/><circle cx="173.2" cy="248.6" r="6.2" fill="none" stroke="#AC4D33" stroke-opacity=".45" stroke-width="1"/><text x="163.2" y="252.2" fill="#8E4231" font-family="Calibri,'Segoe UI',sans-serif" font-size="10.5" text-anchor="end">Vinh</text><circle cx="250.1" cy="341.9" r="3" fill="#AC4D33"/><circle cx="250.1" cy="341.9" r="6.2" fill="none" stroke="#AC4D33" stroke-opacity=".45" stroke-width="1"/><text x="240.1" y="345.5" fill="#8E4231" font-family="Calibri,'Segoe UI',sans-serif" font-size="10.5" text-anchor="end">Huế</text><circle cx="276" cy="358.3" r="3" fill="#AC4D33"/><circle cx="276" cy="358.3" r="6.2" fill="none" stroke="#AC4D33" stroke-opacity=".45" stroke-width="1"/><text x="286" y="361.9" fill="#8E4231" font-family="Calibri,'Segoe UI',sans-serif" font-size="10.5" text-anchor="start">Đà Nẵng</text><circle cx="316.5" cy="454.4" r="3" fill="#AC4D33"/><circle cx="316.5" cy="454.4" r="6.2" fill="none" stroke="#AC4D33" stroke-opacity=".45" stroke-width="1"/><text x="326.5" y="458" fill="#8E4231" font-family="Calibri,'Segoe UI',sans-serif" font-size="10.5" text-anchor="start">Quy Nhơn</text><circle cx="315.3" cy="519.1" r="3" fill="#AC4D33"/><circle cx="315.3" cy="519.1" r="6.2" fill="none" stroke="#AC4D33" stroke-opacity=".45" stroke-width="1"/><text x="325.3" y="522.7" fill="#8E4231" font-family="Calibri,'Segoe UI',sans-serif" font-size="10.5" text-anchor="start">Nha Trang</text><circle cx="284.9" cy="531.7" r="3" fill="#AC4D33"/><circle cx="284.9" cy="531.7" r="6.2" fill="none" stroke="#AC4D33" stroke-opacity=".45" stroke-width="1"/><text x="274.9" y="535.3" fill="#8E4231" font-family="Calibri,'Segoe UI',sans-serif" font-size="10.5" text-anchor="end">Đà Lạt</text><circle cx="214.5" cy="580.4" r="3" fill="#AC4D33"/><circle cx="214.5" cy="580.4" r="6.2" fill="none" stroke="#AC4D33" stroke-opacity=".45" stroke-width="1"/><text x="204.5" y="584" fill="#8E4231" font-family="Calibri,'Segoe UI',sans-serif" font-size="10.5" text-anchor="end">TP. Hồ Chí Minh</text><circle cx="185" cy="602.7" r="3" fill="#AC4D33"/><circle cx="185" cy="602.7" r="6.2" fill="none" stroke="#AC4D33" stroke-opacity=".45" stroke-width="1"/><text x="195" y="606.3" fill="#8E4231" font-family="Calibri,'Segoe UI',sans-serif" font-size="10.5" text-anchor="start">Vĩnh Long</text><circle cx="177.3" cy="611.9" r="3" fill="#AC4D33"/><circle cx="177.3" cy="611.9" r="6.2" fill="none" stroke="#AC4D33" stroke-opacity=".45" stroke-width="1"/><text x="167.3" y="615.5" fill="#8E4231" font-family="Calibri,'Segoe UI',sans-serif" font-size="10.5" text-anchor="end">Cần Thơ</text><circle cx="151.8" cy="647.6" r="3" fill="#AC4D33"/><circle cx="151.8" cy="647.6" r="6.2" fill="none" stroke="#AC4D33" stroke-opacity=".45" stroke-width="1"/><text x="141.8" y="651.2" fill="#8E4231" font-family="Calibri,'Segoe UI',sans-serif" font-size="10.5" text-anchor="end">Cà Mau</text><g><line x1="158.7" x2="158.7" y1="52.1" y2="26.1" stroke="#8E4231" stroke-linecap="round" stroke-width="1.6"/><rect width="21" height="14" x="159.7" y="26.1" fill="#DA251D" rx="1.2"/><polygon fill="#FFCD00" points="170.15 28.04 171.4 31.37 174.95 31.52 172.17 33.73 173.11 37.16 170.15 35.2 167.19 37.16 168.14 33.73 165.36 31.52 168.91 31.37"/><text x="153.7" y="36.1" fill="#8E4231" fill-opacity=".85" font-family="Calibri,'Segoe UI',sans-serif" font-size="9" text-anchor="end">Cột cờ Lũng Cú</text></g><g fill="#8E4231" fill-opacity=".6" stroke="#8E4231" stroke-opacity=".6"><circle cx="563.2" cy="643.2" r="24" fill="none" stroke-width="1.1"/><path stroke="none" d="M 563.2 619.2 L 569.2 643.2 L 563.2 667.2 L 557.2 643.2 Z"/><path fill-opacity=".3" stroke="none" d="M 539.2 643.2 L 563.2 637.2 L 587.2 643.2 L 563.2 649.2 Z"/><text x="563.2" y="614.2" stroke="none" font-family="Calibri,sans-serif" font-size="10" font-weight="700" text-anchor="middle">B</text></g></svg>